<svg xmlns="http://www.w3.org/2000/svg" viewBox="0 0 1920 1080" width="1920" height="1080">
<defs><linearGradient id="space" x2="1" y2="1"><stop stop-color="#080e1a"/><stop offset=".58" stop-color="#152c40"/><stop offset="1" stop-color="#090e1b"/></linearGradient><radialGradient id="energy"><stop stop-color="#60badd" stop-opacity=".24"/><stop offset="1" stop-color="#2587b6" stop-opacity="0"/></radialGradient><linearGradient id="gold" x2="1" y2="1"><stop stop-color="#eee0af"/><stop offset=".3" stop-color="#8c7a57"/><stop offset=".7" stop-color="#403c36"/><stop offset="1" stop-color="#a9905d"/></linearGradient><pattern id="etch" width="112" height="112" patternUnits="userSpaceOnUse"><path d="M56 2L110 56L56 110L2 56Z" fill="none" stroke="#dfc891" stroke-opacity=".07"/></pattern></defs>
<path fill="url(#space)" d="M0 0H1920V1080H0Z"/><ellipse cx="1450" cy="535" rx="790" ry="750" fill="url(#energy)"/><path fill="url(#etch)" d="M0 0H1920V1080H0Z"/>
<g fill="none" stroke="#ac9664" stroke-opacity=".22"><path d="M38 50H440L470 75H1872V1015H1510L1470 1030H38Z"/><path d="M68 82H330M68 998H670M1010 998H1838"/><path d="M1040 110L1820 190V910L1180 990"/><path d="M1080 130L1740 225V865L1240 950"/></g>
<g fill="url(#gold)" stroke="#eddaa5" stroke-opacity=".22"><path d="M1918 75L1800 255L1747 314L1800 235L1920 30Z"/><path d="M1920 790L1750 972L1560 1034L1720 1020L1920 852Z"/><path d="M0 0H610L650 15H1580L1600 0H1920V11H1600L1570 23H610L580 11H0Z"/><path d="M0 1080V1066H660L690 1058H1280L1310 1066H1920V1080Z"/></g>
<g fill="none" stroke="#83d9ec" stroke-opacity=".16"><circle cx="1455" cy="548" r="352"/><circle cx="1455" cy="548" r="383" stroke-dasharray="34 12 2 12"/><path d="M1455 124V188M1455 907V972M1035 548H1096M1814 548H1873"/></g>
<g fill="#dbeef2" opacity=".28"><circle cx="1188" cy="160" r="1.5"/><circle cx="899" cy="121" r="1"/><circle cx="1611" cy="165" r="1"/><circle cx="1710" cy="681" r="1.5"/><circle cx="1090" cy="866" r="1"/><circle cx="246" cy="902" r="1"/></g>
</svg>
